<svg xmlns="http://www.w3.org/2000/svg" xmlns:xlink="http://www.w3.org/1999/xlink" width="2000" zoomAndPan="magnify" viewBox="0 0 1500 1499.999933" height="2000" preserveAspectRatio="xMidYMid meet" version="1.0"><defs><g/><clipPath id="3f7ce9e5f7"><path d="M 679 399 L 790 399 L 790 519 L 679 519 Z M 679 399 " clip-rule="nonzero"/></clipPath><clipPath id="c2bad4bb19"><path d="M 728.40625 364.246094 L 1011.742188 546.238281 L 778.269531 909.71875 L 494.933594 727.722656 Z M 728.40625 364.246094 " clip-rule="nonzero"/></clipPath><clipPath id="97e60d2656"><path d="M 728.40625 364.246094 L 1011.742188 546.238281 L 778.269531 909.71875 L 494.933594 727.722656 Z M 728.40625 364.246094 " clip-rule="nonzero"/></clipPath><clipPath id="f4170debd1"><path d="M 752 401 L 819 401 L 819 489 L 752 489 Z M 752 401 " clip-rule="nonzero"/></clipPath><clipPath id="beb5b5ae69"><path d="M 728.40625 364.246094 L 1011.742188 546.238281 L 778.269531 909.71875 L 494.933594 727.722656 Z M 728.40625 364.246094 " clip-rule="nonzero"/></clipPath><clipPath id="c8835a1de5"><path d="M 728.40625 364.246094 L 1011.742188 546.238281 L 778.269531 909.71875 L 494.933594 727.722656 Z M 728.40625 364.246094 " clip-rule="nonzero"/></clipPath><clipPath id="44249a339a"><path d="M 735 725 L 800 725 L 800 770 L 735 770 Z M 735 725 " clip-rule="nonzero"/></clipPath><clipPath id="2e397d1c72"><path d="M 728.40625 364.246094 L 1011.742188 546.238281 L 778.269531 909.71875 L 494.933594 727.722656 Z M 728.40625 364.246094 " clip-rule="nonzero"/></clipPath><clipPath id="9bb59da448"><path d="M 728.40625 364.246094 L 1011.742188 546.238281 L 778.269531 909.71875 L 494.933594 727.722656 Z M 728.40625 364.246094 " clip-rule="nonzero"/></clipPath><clipPath id="3d3f298435"><path d="M 637 454 L 901 454 L 901 703 L 637 703 Z M 637 454 " clip-rule="nonzero"/></clipPath><clipPath id="08c16229a3"><path d="M 728.40625 364.246094 L 1011.742188 546.238281 L 778.269531 909.71875 L 494.933594 727.722656 Z M 728.40625 364.246094 " clip-rule="nonzero"/></clipPath><clipPath id="a9f80f3d45"><path d="M 728.40625 364.246094 L 1011.742188 546.238281 L 778.269531 909.71875 L 494.933594 727.722656 Z M 728.40625 364.246094 " clip-rule="nonzero"/></clipPath><clipPath id="a31ec25ad3"><path d="M 671 487 L 867 487 L 867 669 L 671 669 Z M 671 487 " clip-rule="nonzero"/></clipPath><clipPath id="aef7558f37"><path d="M 728.40625 364.246094 L 1011.742188 546.238281 L 778.269531 909.71875 L 494.933594 727.722656 Z M 728.40625 364.246094 " clip-rule="nonzero"/></clipPath><clipPath id="95f7ae1660"><path d="M 728.40625 364.246094 L 1011.742188 546.238281 L 778.269531 909.71875 L 494.933594 727.722656 Z M 728.40625 364.246094 " clip-rule="nonzero"/></clipPath><clipPath id="de674294a0"><path d="M 734 725 L 800 725 L 800 891 L 734 891 Z M 734 725 " clip-rule="nonzero"/></clipPath><clipPath id="1b319f3432"><path d="M 728.40625 364.246094 L 1011.742188 546.238281 L 778.269531 909.71875 L 494.933594 727.722656 Z M 728.40625 364.246094 " clip-rule="nonzero"/></clipPath><clipPath id="c2dcabdc55"><path d="M 728.40625 364.246094 L 1011.742188 546.238281 L 778.269531 909.71875 L 494.933594 727.722656 Z M 728.40625 364.246094 " clip-rule="nonzero"/></clipPath><clipPath id="1c620a7ee9"><path d="M 747 694 L 788 694 L 788 733 L 747 733 Z M 747 694 " clip-rule="nonzero"/></clipPath><clipPath id="2c54d83504"><path d="M 728.40625 364.246094 L 1011.742188 546.238281 L 778.269531 909.71875 L 494.933594 727.722656 Z M 728.40625 364.246094 " clip-rule="nonzero"/></clipPath><clipPath id="43408a5d25"><path d="M 728.40625 364.246094 L 1011.742188 546.238281 L 778.269531 909.71875 L 494.933594 727.722656 Z M 728.40625 364.246094 " clip-rule="nonzero"/></clipPath><clipPath id="9bda9e9462"><path d="M 820 535 L 848 535 L 848 564 L 820 564 Z M 820 535 " clip-rule="nonzero"/></clipPath><clipPath id="55209f81a3"><path d="M 728.40625 364.246094 L 1011.742188 546.238281 L 778.269531 909.71875 L 494.933594 727.722656 Z M 728.40625 364.246094 " clip-rule="nonzero"/></clipPath><clipPath id="3d9ad80faf"><path d="M 728.40625 364.246094 L 1011.742188 546.238281 L 778.269531 909.71875 L 494.933594 727.722656 Z M 728.40625 364.246094 " clip-rule="nonzero"/></clipPath><clipPath id="44aaca7c25"><path d="M 729 528 L 848 528 L 848 559 L 729 559 Z M 729 528 " clip-rule="nonzero"/></clipPath><clipPath id="56baa18bad"><path d="M 728.40625 364.246094 L 1011.742188 546.238281 L 778.269531 909.71875 L 494.933594 727.722656 Z M 728.40625 364.246094 " clip-rule="nonzero"/></clipPath><clipPath id="b0f7a16832"><path d="M 728.40625 364.246094 L 1011.742188 546.238281 L 778.269531 909.71875 L 494.933594 727.722656 Z M 728.40625 364.246094 " clip-rule="nonzero"/></clipPath><clipPath id="ba7ba4ef31"><path d="M 694 553 L 743 553 L 743 606 L 694 606 Z M 694 553 " clip-rule="nonzero"/></clipPath><clipPath id="3405ae1e59"><path d="M 728.40625 364.246094 L 1011.742188 546.238281 L 778.269531 909.71875 L 494.933594 727.722656 Z M 728.40625 364.246094 " clip-rule="nonzero"/></clipPath><clipPath id="d711ca767f"><path d="M 728.40625 364.246094 L 1011.742188 546.238281 L 778.269531 909.71875 L 494.933594 727.722656 Z M 728.40625 364.246094 " clip-rule="nonzero"/></clipPath><clipPath id="4d17784d6e"><path d="M 715 549 L 776 549 L 776 619 L 715 619 Z M 715 549 " clip-rule="nonzero"/></clipPath><clipPath id="674eec4265"><path d="M 728.40625 364.246094 L 1011.742188 546.238281 L 778.269531 909.71875 L 494.933594 727.722656 Z M 728.40625 364.246094 " clip-rule="nonzero"/></clipPath><clipPath id="3b2d6311e5"><path d="M 728.40625 364.246094 L 1011.742188 546.238281 L 778.269531 909.71875 L 494.933594 727.722656 Z M 728.40625 364.246094 " clip-rule="nonzero"/></clipPath><clipPath id="b5e9195b7a"><path d="M 758 576 L 818 576 L 818 646 L 758 646 Z M 758 576 " clip-rule="nonzero"/></clipPath><clipPath id="e011a3646a"><path d="M 728.40625 364.246094 L 1011.742188 546.238281 L 778.269531 909.71875 L 494.933594 727.722656 Z M 728.40625 364.246094 " clip-rule="nonzero"/></clipPath><clipPath id="cb6b2c80f0"><path d="M 728.40625 364.246094 L 1011.742188 546.238281 L 778.269531 909.71875 L 494.933594 727.722656 Z M 728.40625 364.246094 " clip-rule="nonzero"/></clipPath><clipPath id="8c2042b735"><path d="M 736 579 L 787 579 L 787 633 L 736 633 Z M 736 579 " clip-rule="nonzero"/></clipPath><clipPath id="d78b11e45e"><path d="M 728.40625 364.246094 L 1011.742188 546.238281 L 778.269531 909.71875 L 494.933594 727.722656 Z M 728.40625 364.246094 " clip-rule="nonzero"/></clipPath><clipPath id="7c0c060f97"><path d="M 728.40625 364.246094 L 1011.742188 546.238281 L 778.269531 909.71875 L 494.933594 727.722656 Z M 728.40625 364.246094 " clip-rule="nonzero"/></clipPath></defs><g clip-path="url(#3f7ce9e5f7)"><g clip-path="url(#c2bad4bb19)"><g clip-path="url(#97e60d2656)"><path fill="#ffffff" d="M 706.414062 508.652344 C 704.808594 507.621094 703.257812 506.519531 701.757812 505.339844 C 700.257812 504.160156 698.816406 502.914062 697.4375 501.597656 C 696.058594 500.277344 694.746094 498.898438 693.5 497.453125 C 692.253906 496.011719 691.082031 494.511719 689.980469 492.953125 C 688.878906 491.394531 687.851562 489.789062 686.90625 488.132812 C 685.957031 486.480469 685.09375 484.78125 684.308594 483.042969 C 683.527344 481.304688 682.828125 479.53125 682.214844 477.726562 C 681.601562 475.917969 681.078125 474.089844 680.640625 472.230469 C 680.207031 470.375 679.859375 468.5 679.601562 466.613281 C 679.347656 464.722656 679.183594 462.824219 679.109375 460.917969 C 679.035156 459.011719 679.054688 457.105469 679.164062 455.203125 C 679.273438 453.296875 679.476562 451.40625 679.769531 449.519531 C 680.0625 447.636719 680.445312 445.769531 680.917969 443.921875 C 681.390625 442.074219 681.949219 440.253906 682.597656 438.457031 C 683.246094 436.664062 683.980469 434.90625 684.796875 433.183594 C 685.613281 431.460938 686.511719 429.78125 687.492188 428.144531 C 688.46875 426.507812 689.523438 424.921875 690.65625 423.386719 C 691.789062 421.851562 692.992188 420.375 694.265625 418.953125 C 695.539062 417.535156 696.878906 416.179688 698.285156 414.890625 C 699.6875 413.597656 701.152344 412.378906 702.675781 411.230469 C 704.195312 410.082031 705.769531 409.007812 707.394531 408.011719 C 709.019531 407.011719 710.691406 406.09375 712.40625 405.257812 C 714.117188 404.421875 715.867188 403.667969 717.65625 403 C 719.441406 402.332031 721.253906 401.75 723.097656 401.257812 C 724.941406 400.765625 726.800781 400.359375 728.683594 400.046875 C 730.5625 399.730469 732.457031 399.507812 734.359375 399.378906 C 736.261719 399.246094 738.167969 399.203125 740.074219 399.257812 C 741.980469 399.308594 743.878906 399.449219 745.773438 399.683594 C 747.664062 399.917969 749.542969 400.246094 751.402344 400.660156 C 753.265625 401.074219 755.101562 401.578125 756.914062 402.171875 C 758.726562 402.761719 760.507812 403.441406 762.253906 404.203125 C 764.003906 404.96875 765.710938 405.816406 767.375 406.742188 C 767.585938 406.859375 767.785156 407 767.96875 407.15625 C 768.152344 407.316406 768.316406 407.488281 768.464844 407.683594 C 768.609375 407.875 768.734375 408.078125 768.839844 408.296875 C 768.945312 408.515625 769.027344 408.742188 769.085938 408.976562 C 769.144531 409.210938 769.179688 409.449219 769.191406 409.691406 C 769.199219 409.933594 769.1875 410.171875 769.148438 410.410156 C 769.105469 410.648438 769.042969 410.882812 768.957031 411.105469 C 768.871094 411.332031 768.761719 411.546875 768.632812 411.75 L 740.445312 455.632812 L 787.507812 485.863281 C 787.902344 486.117188 788.234375 486.4375 788.503906 486.820312 C 788.773438 487.207031 788.957031 487.628906 789.054688 488.089844 C 789.15625 488.546875 789.164062 489.007812 789.082031 489.472656 C 788.996094 489.933594 788.828125 490.363281 788.574219 490.757812 C 787.519531 492.394531 786.390625 493.976562 785.179688 495.503906 C 783.972656 497.027344 782.691406 498.492188 781.335938 499.890625 C 779.984375 501.289062 778.566406 502.621094 777.085938 503.882812 C 775.601562 505.144531 774.058594 506.328125 772.460938 507.4375 C 770.859375 508.546875 769.210938 509.578125 767.511719 510.523438 C 765.808594 511.472656 764.066406 512.335938 762.28125 513.113281 C 760.496094 513.890625 758.679688 514.578125 756.828125 515.175781 C 754.972656 515.773438 753.097656 516.28125 751.195312 516.695312 C 749.292969 517.109375 747.375 517.429688 745.441406 517.65625 C 743.507812 517.878906 741.566406 518.011719 739.621094 518.046875 C 737.675781 518.082031 735.730469 518.023438 733.789062 517.867188 C 731.851562 517.714844 729.921875 517.464844 728.007812 517.121094 C 726.089844 516.777344 724.195312 516.339844 722.320312 515.808594 C 720.449219 515.277344 718.605469 514.660156 716.792969 513.949219 C 714.980469 513.238281 713.207031 512.4375 711.472656 511.554688 C 709.738281 510.667969 708.054688 509.703125 706.414062 508.652344 Z M 760.558594 411.207031 C 759.070312 410.519531 757.554688 409.902344 756.007812 409.355469 C 754.464844 408.808594 752.894531 408.335938 751.304688 407.933594 C 749.714844 407.535156 748.109375 407.210938 746.488281 406.964844 C 744.867188 406.714844 743.238281 406.542969 741.601562 406.449219 C 739.964844 406.351562 738.328125 406.335938 736.691406 406.394531 C 735.050781 406.453125 733.421875 406.585938 731.792969 406.796875 C 730.167969 407.011719 728.554688 407.296875 726.957031 407.660156 C 725.359375 408.023438 723.78125 408.464844 722.222656 408.976562 C 720.664062 409.488281 719.136719 410.070312 717.632812 410.726562 C 716.128906 411.382812 714.660156 412.105469 713.226562 412.898438 C 711.792969 413.695312 710.398438 414.554688 709.042969 415.476562 C 707.691406 416.402344 706.382812 417.390625 705.121094 418.4375 C 703.859375 419.484375 702.652344 420.589844 701.496094 421.75 C 700.335938 422.910156 699.238281 424.125 698.195312 425.390625 C 697.152344 426.652344 696.167969 427.964844 695.25 429.320312 C 694.328125 430.679688 693.476562 432.074219 692.6875 433.511719 C 691.898438 434.949219 691.175781 436.421875 690.527344 437.925781 C 689.875 439.429688 689.296875 440.964844 688.792969 442.523438 C 688.285156 444.082031 687.851562 445.660156 687.496094 447.261719 C 687.136719 448.859375 686.855469 450.472656 686.648438 452.101562 C 686.441406 453.726562 686.3125 455.359375 686.261719 457 C 686.207031 458.636719 686.230469 460.273438 686.332031 461.910156 C 686.433594 463.546875 686.609375 465.175781 686.863281 466.796875 C 687.117188 468.414062 687.449219 470.019531 687.851562 471.609375 C 688.257812 473.195312 688.738281 474.761719 689.289062 476.304688 C 689.839844 477.851562 690.464844 479.363281 691.160156 480.851562 C 691.851562 482.335938 692.617188 483.785156 693.445312 485.199219 C 694.277344 486.609375 695.171875 487.984375 696.132812 489.3125 C 697.089844 490.640625 698.109375 491.921875 699.191406 493.15625 C 700.269531 494.390625 701.40625 495.570312 702.597656 496.695312 C 703.789062 497.824219 705.027344 498.890625 706.320312 499.902344 C 707.613281 500.910156 708.949219 501.859375 710.328125 502.742188 C 711.707031 503.628906 713.128906 504.445312 714.585938 505.195312 C 716.042969 505.949219 717.53125 506.628906 719.050781 507.242188 C 720.574219 507.851562 722.121094 508.390625 723.691406 508.855469 C 725.265625 509.320312 726.855469 509.714844 728.464844 510.03125 C 730.070312 510.347656 731.691406 510.585938 733.324219 510.75 C 734.953125 510.914062 736.589844 511 738.230469 511.011719 C 739.867188 511.023438 741.503906 510.957031 743.136719 510.8125 C 744.769531 510.667969 746.394531 510.449219 748.007812 510.152344 C 749.621094 509.855469 751.214844 509.484375 752.792969 509.039062 C 754.371094 508.59375 755.921875 508.074219 757.453125 507.484375 C 758.980469 506.890625 760.480469 506.230469 761.945312 505.496094 C 763.410156 504.761719 764.839844 503.964844 766.230469 503.097656 C 767.625 502.230469 768.972656 501.300781 770.277344 500.304688 C 771.578125 499.3125 772.835938 498.257812 774.039062 497.148438 C 775.246094 496.035156 776.394531 494.871094 777.488281 493.652344 C 778.585938 492.429688 779.621094 491.164062 780.597656 489.84375 L 733.636719 459.679688 C 733.238281 459.425781 732.90625 459.105469 732.640625 458.71875 C 732.371094 458.335938 732.1875 457.910156 732.085938 457.453125 C 731.988281 456.992188 731.980469 456.53125 732.0625 456.070312 C 732.144531 455.609375 732.316406 455.179688 732.570312 454.785156 Z M 760.558594 411.207031 " fill-opacity="1" fill-rule="nonzero"/></g></g></g><g clip-path="url(#f4170debd1)"><g clip-path="url(#beb5b5ae69)"><g clip-path="url(#c8835a1de5)"><path fill="#20bffc" d="M 803.773438 487.449219 L 753.730469 455.304688 C 753.335938 455.050781 753.003906 454.730469 752.734375 454.34375 C 752.46875 453.960938 752.28125 453.535156 752.183594 453.078125 C 752.082031 452.617188 752.074219 452.15625 752.15625 451.695312 C 752.242188 451.234375 752.410156 450.804688 752.664062 450.410156 L 782.765625 403.546875 C 783.007812 403.167969 783.3125 402.847656 783.679688 402.582031 C 784.046875 402.320312 784.445312 402.132812 784.882812 402.023438 C 785.320312 401.914062 785.761719 401.890625 786.210938 401.949219 C 786.65625 402.007812 787.078125 402.148438 787.46875 402.367188 C 788.550781 402.96875 789.695312 403.617188 790.734375 404.28125 C 792.371094 405.335938 793.953125 406.464844 795.480469 407.671875 C 797.003906 408.878906 798.46875 410.160156 799.867188 411.511719 C 801.265625 412.859375 802.597656 414.277344 803.859375 415.757812 C 805.121094 417.238281 806.304688 418.78125 807.414062 420.378906 C 808.527344 421.976562 809.554688 423.625 810.503906 425.320312 C 811.453125 427.019531 812.316406 428.761719 813.09375 430.546875 C 813.871094 432.328125 814.558594 434.144531 815.15625 435.996094 C 815.757812 437.847656 816.261719 439.722656 816.679688 441.625 C 817.09375 443.523438 817.414062 445.441406 817.640625 447.375 C 817.871094 449.304688 818 451.246094 818.039062 453.191406 C 818.074219 455.136719 818.015625 457.078125 817.863281 459.015625 C 817.710938 460.957031 817.460938 462.882812 817.117188 464.796875 C 816.777344 466.714844 816.339844 468.609375 815.8125 470.480469 C 815.285156 472.351562 814.664062 474.195312 813.957031 476.007812 C 813.246094 477.816406 812.449219 479.589844 811.566406 481.324219 C 810.683594 483.058594 809.71875 484.742188 808.667969 486.382812 C 808.414062 486.777344 808.09375 487.109375 807.710938 487.378906 C 807.324219 487.644531 806.902344 487.828125 806.441406 487.929688 C 805.984375 488.03125 805.523438 488.039062 805.058594 487.953125 C 804.597656 487.871094 804.167969 487.703125 803.773438 487.449219 Z M 760.539062 451.257812 L 804.519531 479.507812 C 805.308594 478.070312 806.027344 476.597656 806.679688 475.09375 C 807.328125 473.585938 807.90625 472.054688 808.410156 470.496094 C 808.917969 468.9375 809.347656 467.355469 809.707031 465.753906 C 810.0625 464.15625 810.347656 462.542969 810.550781 460.914062 C 810.757812 459.289062 810.886719 457.65625 810.941406 456.019531 C 810.992188 454.378906 810.96875 452.742188 810.871094 451.105469 C 810.769531 449.46875 810.589844 447.839844 810.339844 446.222656 C 810.085938 444.601562 809.753906 442.996094 809.351562 441.40625 C 808.949219 439.820312 808.46875 438.253906 807.917969 436.707031 C 807.367188 435.164062 806.746094 433.648438 806.050781 432.164062 C 805.359375 430.675781 804.597656 429.226562 803.769531 427.8125 C 802.9375 426.398438 802.042969 425.027344 801.085938 423.695312 C 800.128906 422.367188 799.109375 421.082031 798.03125 419.847656 C 796.953125 418.613281 795.820312 417.433594 794.628906 416.304688 C 793.441406 415.175781 792.199219 414.105469 790.910156 413.09375 C 789.621094 412.082031 788.285156 411.132812 786.90625 410.246094 L 786.890625 410.234375 Z M 760.539062 451.257812 " fill-opacity="1" fill-rule="nonzero"/></g></g></g><g clip-path="url(#44249a339a)"><g clip-path="url(#2e397d1c72)"><g clip-path="url(#9bb59da448)"><path fill="#20bffc" d="M 736.925781 768.246094 C 736.414062 767.917969 736.011719 767.484375 735.722656 766.949219 C 735.429688 766.414062 735.289062 765.84375 735.292969 765.234375 L 735.570312 728.917969 C 735.574219 728.449219 735.664062 727.996094 735.847656 727.5625 C 736.03125 727.128906 736.289062 726.75 736.625 726.417969 C 736.960938 726.089844 737.34375 725.835938 737.78125 725.660156 C 738.214844 725.484375 738.667969 725.394531 739.136719 725.398438 L 796.21875 725.832031 C 796.6875 725.835938 797.140625 725.929688 797.574219 726.113281 C 798.003906 726.296875 798.386719 726.554688 798.714844 726.890625 C 799.046875 727.222656 799.300781 727.609375 799.476562 728.042969 C 799.652344 728.480469 799.738281 728.933594 799.734375 729.402344 L 799.457031 765.722656 C 799.453125 766.195312 799.359375 766.644531 799.179688 767.078125 C 798.996094 767.511719 798.734375 767.890625 798.402344 768.222656 C 798.066406 768.550781 797.679688 768.804688 797.246094 768.980469 C 796.808594 769.15625 796.359375 769.242188 795.886719 769.242188 L 738.808594 768.804688 C 738.125 768.800781 737.5 768.613281 736.925781 768.246094 Z M 742.625 732.511719 L 742.40625 761.746094 L 792.398438 762.128906 L 792.621094 732.894531 Z M 742.625 732.511719 " fill-opacity="1" fill-rule="nonzero"/></g></g></g><g clip-path="url(#3d3f298435)"><g clip-path="url(#08c16229a3)"><g clip-path="url(#a9f80f3d45)"><path fill="#ffffff" d="M 697.738281 681.949219 C 695.738281 680.667969 693.769531 679.332031 691.835938 677.945312 C 689.90625 676.554688 688.015625 675.117188 686.160156 673.625 C 684.308594 672.132812 682.496094 670.59375 680.726562 669.003906 C 678.957031 667.414062 677.230469 665.777344 675.550781 664.09375 C 673.871094 662.414062 672.234375 660.683594 670.648438 658.914062 C 669.0625 657.144531 667.523438 655.328125 666.035156 653.472656 C 664.542969 651.621094 663.105469 649.726562 661.71875 647.792969 C 660.335938 645.859375 659 643.890625 657.722656 641.886719 C 656.441406 639.882812 655.21875 637.84375 654.046875 635.773438 C 652.878906 633.699219 651.765625 631.597656 650.710938 629.46875 C 649.65625 627.335938 648.660156 625.175781 647.722656 622.992188 C 646.785156 620.804688 645.90625 618.59375 645.085938 616.363281 C 644.269531 614.128906 643.511719 611.875 642.816406 609.601562 C 642.121094 607.324219 641.484375 605.035156 640.914062 602.726562 C 640.339844 600.417969 639.832031 598.09375 639.386719 595.757812 C 638.941406 593.421875 638.558594 591.074219 638.238281 588.71875 C 637.921875 586.359375 637.667969 583.996094 637.476562 581.625 C 637.285156 579.253906 637.160156 576.878906 637.097656 574.503906 C 637.035156 572.125 637.039062 569.746094 637.105469 567.367188 C 637.171875 564.992188 637.304688 562.617188 637.5 560.246094 C 637.695312 557.875 637.953125 555.511719 638.277344 553.15625 C 638.601562 550.800781 638.992188 548.453125 639.441406 546.117188 C 639.894531 543.78125 640.40625 541.460938 640.984375 539.152344 C 641.5625 536.847656 642.199219 534.554688 642.902344 532.285156 C 643.601562 530.011719 644.363281 527.757812 645.1875 525.527344 C 646.011719 523.296875 646.894531 521.085938 647.835938 518.902344 C 648.78125 516.71875 649.78125 514.5625 650.839844 512.433594 C 651.902344 510.304688 653.019531 508.207031 654.191406 506.136719 C 655.363281 504.066406 656.59375 502.03125 657.878906 500.03125 C 659.164062 498.027344 660.5 496.0625 661.890625 494.132812 C 663.28125 492.203125 664.722656 490.3125 666.214844 488.460938 C 667.707031 486.609375 669.25 484.800781 670.84375 483.03125 C 671.15625 482.683594 671.527344 482.410156 671.953125 482.207031 C 672.375 482.007812 672.824219 481.894531 673.292969 481.871094 C 673.761719 481.847656 674.21875 481.914062 674.660156 482.074219 C 675.101562 482.230469 675.496094 482.46875 675.84375 482.785156 C 676.195312 483.097656 676.46875 483.46875 676.667969 483.894531 C 676.871094 484.316406 676.980469 484.765625 677.003906 485.234375 C 677.027344 485.703125 676.960938 486.160156 676.804688 486.601562 C 676.644531 487.042969 676.410156 487.4375 676.09375 487.785156 C 674.210938 489.882812 672.398438 492.035156 670.660156 494.253906 C 668.925781 496.472656 667.261719 498.746094 665.679688 501.074219 C 664.097656 503.40625 662.59375 505.785156 661.171875 508.21875 C 659.75 510.648438 658.410156 513.125 657.15625 515.648438 C 655.902344 518.171875 654.738281 520.734375 653.65625 523.335938 C 652.578125 525.9375 651.585938 528.574219 650.683594 531.242188 C 649.785156 533.910156 648.972656 536.609375 648.257812 539.332031 C 647.539062 542.054688 646.914062 544.800781 646.378906 547.566406 C 645.847656 550.332031 645.410156 553.113281 645.066406 555.910156 C 644.722656 558.707031 644.476562 561.511719 644.324219 564.324219 C 644.171875 567.136719 644.113281 569.953125 644.152344 572.769531 C 644.1875 575.585938 644.324219 578.398438 644.550781 581.207031 C 644.78125 584.015625 645.105469 586.8125 645.523438 589.597656 C 645.941406 592.382812 646.453125 595.152344 647.058594 597.902344 C 647.667969 600.652344 648.367188 603.378906 649.15625 606.082031 C 649.949219 608.789062 650.832031 611.460938 651.804688 614.105469 C 652.777344 616.75 653.839844 619.355469 654.988281 621.929688 C 656.136719 624.5 657.375 627.03125 658.695312 629.515625 C 660.015625 632.003906 661.421875 634.445312 662.910156 636.839844 C 664.394531 639.230469 665.960938 641.570312 667.609375 643.855469 C 669.253906 646.144531 670.976562 648.371094 672.773438 650.539062 C 674.570312 652.710938 676.4375 654.816406 678.378906 656.859375 C 680.316406 658.902344 682.324219 660.875 684.398438 662.78125 C 686.472656 664.6875 688.609375 666.523438 690.808594 668.285156 C 693.003906 670.046875 695.261719 671.730469 697.574219 673.339844 C 699.886719 674.949219 702.25 676.476562 704.667969 677.925781 C 707.082031 679.371094 709.546875 680.738281 712.054688 682.019531 C 714.5625 683.300781 717.113281 684.492188 719.703125 685.601562 C 722.292969 686.710938 724.917969 687.730469 727.578125 688.660156 C 730.238281 689.589844 732.925781 690.425781 735.640625 691.175781 C 738.355469 691.921875 741.09375 692.578125 743.855469 693.140625 C 746.617188 693.699219 749.390625 694.167969 752.183594 694.542969 C 757.40625 695.269531 762.648438 695.664062 767.917969 695.730469 C 773.171875 695.746094 778.402344 695.441406 783.617188 694.8125 C 786.886719 694.421875 790.140625 693.902344 793.371094 693.253906 C 796.601562 692.609375 799.804688 691.832031 802.972656 690.933594 C 806.144531 690.03125 809.273438 689.003906 812.363281 687.855469 C 815.453125 686.707031 818.492188 685.4375 821.480469 684.046875 C 824.46875 682.65625 827.394531 681.152344 830.265625 679.527344 C 833.132812 677.90625 835.933594 676.171875 838.664062 674.328125 C 841.398438 672.484375 844.050781 670.535156 846.628906 668.480469 C 849.203125 666.425781 851.695312 664.269531 854.101562 662.019531 C 856.507812 659.765625 858.820312 657.421875 861.042969 654.988281 C 863.261719 652.550781 865.382812 650.03125 867.402344 647.425781 C 869.425781 644.824219 871.339844 642.144531 873.144531 639.386719 C 874.953125 636.632812 876.652344 633.808594 878.234375 630.917969 C 879.820312 628.03125 881.285156 625.082031 882.636719 622.074219 C 883.988281 619.070312 885.21875 616.011719 886.328125 612.910156 C 887.433594 609.804688 888.417969 606.664062 889.277344 603.480469 C 890.136719 600.300781 890.867188 597.089844 891.472656 593.847656 C 892.078125 590.609375 892.554688 587.351562 892.902344 584.070312 C 893.246094 580.792969 893.464844 577.507812 893.550781 574.214844 C 893.632812 570.917969 893.589844 567.625 893.414062 564.335938 C 893.238281 561.042969 892.933594 557.765625 892.5 554.496094 C 892.0625 551.230469 891.5 547.984375 890.808594 544.765625 C 890.117188 541.542969 889.296875 538.351562 888.351562 535.195312 C 887.40625 532.035156 886.335938 528.921875 885.144531 525.847656 C 883.953125 522.777344 882.640625 519.753906 881.210938 516.789062 C 879.777344 513.820312 878.230469 510.910156 876.570312 508.066406 C 874.90625 505.21875 873.132812 502.441406 871.253906 499.738281 C 869.371094 497.03125 867.382812 494.40625 865.292969 491.859375 C 863.203125 489.308594 861.015625 486.847656 858.730469 484.472656 C 856.445312 482.097656 854.066406 479.820312 851.601562 477.632812 C 849.136719 475.445312 846.585938 473.359375 843.953125 471.375 C 841.324219 469.390625 838.617188 467.515625 835.835938 465.746094 C 833.054688 463.976562 830.210938 462.320312 827.296875 460.777344 C 826.882812 460.554688 826.53125 460.261719 826.230469 459.898438 C 825.933594 459.535156 825.71875 459.128906 825.582031 458.679688 C 825.445312 458.230469 825.402344 457.773438 825.445312 457.308594 C 825.492188 456.839844 825.625 456.398438 825.84375 455.984375 C 826.066406 455.570312 826.355469 455.214844 826.71875 454.917969 C 827.082031 454.621094 827.484375 454.402344 827.933594 454.265625 C 828.382812 454.125 828.839844 454.078125 829.308594 454.125 C 829.773438 454.167969 830.214844 454.300781 830.628906 454.519531 C 833.707031 456.152344 836.714844 457.902344 839.652344 459.773438 C 842.589844 461.644531 845.449219 463.625 848.230469 465.722656 C 851.011719 467.820312 853.707031 470.023438 856.3125 472.335938 C 858.917969 474.644531 861.429688 477.054688 863.84375 479.566406 C 866.261719 482.074219 868.570312 484.675781 870.78125 487.371094 C 872.988281 490.0625 875.089844 492.839844 877.078125 495.699219 C 879.066406 498.558594 880.9375 501.492188 882.695312 504.5 C 884.453125 507.507812 886.085938 510.578125 887.597656 513.71875 C 889.113281 516.855469 890.496094 520.046875 891.757812 523.292969 C 893.015625 526.542969 894.144531 529.832031 895.144531 533.171875 C 896.144531 536.507812 897.007812 539.878906 897.738281 543.285156 C 898.472656 546.6875 899.066406 550.117188 899.527344 553.570312 C 899.984375 557.023438 900.308594 560.488281 900.492188 563.96875 C 900.679688 567.445312 900.726562 570.925781 900.632812 574.40625 C 900.542969 577.890625 900.316406 581.363281 899.949219 584.824219 C 899.582031 588.289062 899.078125 591.734375 898.441406 595.15625 C 897.800781 598.582031 897.027344 601.972656 896.117188 605.335938 C 895.210938 608.699219 894.171875 612.019531 893 615.300781 C 891.828125 618.582031 890.527344 621.808594 889.097656 624.984375 C 887.671875 628.164062 886.121094 631.277344 884.445312 634.332031 C 882.773438 637.386719 880.980469 640.371094 879.066406 643.28125 C 877.15625 646.195312 875.132812 649.027344 873 651.777344 C 870.863281 654.527344 868.621094 657.191406 866.273438 659.765625 C 863.929688 662.339844 861.484375 664.816406 858.941406 667.195312 C 856.398438 669.578125 853.765625 671.851562 851.039062 674.023438 C 848.316406 676.195312 845.511719 678.253906 842.625 680.203125 C 839.738281 682.152344 836.78125 683.984375 833.746094 685.699219 C 830.714844 687.414062 827.621094 689.003906 824.464844 690.472656 C 821.304688 691.941406 818.09375 693.285156 814.828125 694.5 C 811.566406 695.714844 808.257812 696.796875 804.90625 697.75 C 801.554688 698.703125 798.171875 699.519531 794.757812 700.203125 C 791.34375 700.886719 787.90625 701.4375 784.449219 701.847656 C 778.9375 702.511719 773.40625 702.835938 767.855469 702.8125 C 761.671875 702.734375 755.523438 702.226562 749.410156 701.296875 C 743.296875 700.367188 737.273438 699.019531 731.347656 697.253906 C 725.421875 695.492188 719.640625 693.328125 714.015625 690.765625 C 708.386719 688.199219 702.960938 685.261719 697.738281 681.949219 Z M 697.738281 681.949219 " fill-opacity="1" fill-rule="nonzero"/></g></g></g><g clip-path="url(#a31ec25ad3)"><g clip-path="url(#aef7558f37)"><g clip-path="url(#95f7ae1660)"><path fill="#ffffff" d="M 716.191406 653.257812 C 712.730469 651.039062 709.417969 648.613281 706.261719 645.980469 C 703.101562 643.347656 700.121094 640.523438 697.320312 637.515625 C 694.519531 634.503906 691.917969 631.328125 689.519531 627.988281 C 687.117188 624.652344 684.9375 621.175781 682.976562 617.558594 C 681.015625 613.945312 679.289062 610.222656 677.796875 606.390625 C 676.304688 602.558594 675.0625 598.648438 674.0625 594.65625 C 673.066406 590.667969 672.324219 586.632812 671.835938 582.550781 C 671.347656 578.464844 671.117188 574.367188 671.148438 570.257812 C 671.167969 564.945312 671.621094 559.675781 672.511719 554.441406 C 673.398438 549.207031 674.710938 544.082031 676.449219 539.0625 C 678.183594 534.046875 680.320312 529.203125 682.855469 524.539062 C 685.390625 519.875 688.289062 515.449219 691.554688 511.261719 C 691.839844 510.886719 692.1875 510.582031 692.597656 510.34375 C 693.007812 510.105469 693.445312 509.957031 693.914062 509.894531 C 694.382812 509.832031 694.84375 509.863281 695.300781 509.988281 C 695.757812 510.109375 696.171875 510.316406 696.546875 510.605469 C 696.917969 510.894531 697.222656 511.246094 697.457031 511.65625 C 697.691406 512.066406 697.835938 512.507812 697.894531 512.976562 C 697.949219 513.445312 697.914062 513.90625 697.789062 514.363281 C 697.660156 514.816406 697.449219 515.230469 697.15625 515.601562 C 694.128906 519.484375 691.441406 523.585938 689.089844 527.910156 C 686.738281 532.238281 684.757812 536.726562 683.148438 541.378906 C 681.539062 546.03125 680.320312 550.785156 679.496094 555.636719 C 678.671875 560.492188 678.25 565.378906 678.234375 570.300781 C 678.214844 572.269531 678.261719 574.234375 678.371094 576.195312 C 678.480469 578.160156 678.65625 580.117188 678.894531 582.070312 C 679.128906 584.019531 679.429688 585.960938 679.792969 587.894531 C 680.160156 589.828125 680.585938 591.746094 681.074219 593.652344 C 681.5625 595.554688 682.113281 597.441406 682.722656 599.308594 C 683.335938 601.179688 684.007812 603.027344 684.738281 604.851562 C 685.46875 606.675781 686.257812 608.476562 687.109375 610.25 C 687.957031 612.023438 688.863281 613.765625 689.824219 615.480469 C 690.785156 617.195312 691.804688 618.878906 692.875 620.527344 C 693.949219 622.175781 695.070312 623.789062 696.25 625.363281 C 697.425781 626.9375 698.652344 628.472656 699.929688 629.96875 C 701.203125 631.464844 702.527344 632.917969 703.898438 634.324219 C 705.269531 635.734375 706.6875 637.097656 708.148438 638.414062 C 709.605469 639.734375 711.109375 641 712.648438 642.222656 C 714.191406 643.441406 715.773438 644.609375 717.390625 645.726562 C 719.011719 646.839844 720.664062 647.90625 722.351562 648.914062 C 724.039062 649.921875 725.757812 650.875 727.507812 651.773438 C 729.257812 652.667969 731.035156 653.507812 732.835938 654.289062 C 734.640625 655.070312 736.46875 655.792969 738.320312 656.457031 C 740.171875 657.117188 742.042969 657.71875 743.933594 658.261719 C 745.824219 658.800781 747.730469 659.28125 749.652344 659.695312 C 751.574219 660.113281 753.507812 660.46875 755.453125 660.757812 C 757.394531 661.046875 759.347656 661.277344 761.308594 661.441406 C 763.265625 661.601562 765.230469 661.703125 767.195312 661.738281 C 769.160156 661.773438 771.125 661.746094 773.089844 661.65625 C 775.054688 661.5625 777.015625 661.40625 778.96875 661.1875 C 780.921875 660.96875 782.867188 660.6875 784.800781 660.339844 C 786.738281 659.992188 788.660156 659.585938 790.570312 659.113281 C 792.476562 658.644531 794.371094 658.109375 796.242188 657.515625 C 798.117188 656.921875 799.972656 656.265625 801.804688 655.550781 C 803.636719 654.835938 805.441406 654.0625 807.222656 653.230469 C 809.003906 652.398438 810.757812 651.507812 812.480469 650.5625 C 814.203125 649.617188 815.894531 648.613281 817.550781 647.558594 C 819.210938 646.5 820.832031 645.390625 822.417969 644.230469 C 824.003906 643.066406 825.550781 641.855469 827.058594 640.589844 C 828.566406 639.328125 830.03125 638.019531 831.453125 636.660156 C 832.875 635.300781 834.25 633.898438 835.578125 632.449219 C 836.910156 631.003906 838.191406 629.511719 839.425781 627.980469 C 840.660156 626.449219 841.84375 624.882812 842.972656 623.273438 C 844.105469 621.664062 845.183594 620.019531 846.207031 618.34375 C 847.230469 616.664062 848.199219 614.953125 849.113281 613.214844 C 850.027344 611.472656 850.882812 609.703125 851.679688 607.90625 C 852.476562 606.109375 853.214844 604.289062 853.894531 602.441406 C 854.574219 600.597656 855.191406 598.730469 855.75 596.847656 C 856.308594 594.960938 856.804688 593.058594 857.238281 591.140625 C 857.671875 589.222656 858.042969 587.292969 858.351562 585.351562 C 858.660156 583.410156 858.90625 581.460938 859.089844 579.503906 C 859.269531 577.542969 859.386719 575.582031 859.441406 573.617188 C 859.496094 571.652344 859.484375 569.6875 859.410156 567.722656 C 859.335938 565.757812 859.199219 563.796875 859 561.839844 C 858.796875 559.882812 858.53125 557.9375 858.203125 556 C 857.875 554.058594 857.484375 552.132812 857.03125 550.21875 C 856.578125 548.308594 856.0625 546.410156 855.484375 544.53125 C 854.90625 542.652344 854.269531 540.792969 853.570312 538.953125 C 852.871094 537.117188 852.117188 535.304688 851.300781 533.515625 C 850.484375 531.726562 849.609375 529.964844 848.679688 528.234375 C 847.746094 526.5 846.761719 524.800781 845.71875 523.132812 C 844.679688 521.464844 843.585938 519.832031 842.4375 518.238281 C 841.289062 516.640625 840.089844 515.082031 838.839844 513.5625 C 837.59375 512.046875 836.296875 510.570312 834.949219 509.132812 C 833.605469 507.699219 832.214844 506.3125 830.777344 504.96875 C 829.34375 503.625 827.867188 502.328125 826.347656 501.082031 C 824.824219 499.835938 823.265625 498.636719 821.667969 497.492188 C 820.070312 496.34375 818.4375 495.253906 816.769531 494.214844 C 816.386719 493.953125 816.0625 493.628906 815.800781 493.246094 C 815.539062 492.863281 815.355469 492.445312 815.25 491.992188 C 815.144531 491.542969 815.125 491.085938 815.191406 490.625 C 815.257812 490.167969 815.40625 489.734375 815.636719 489.332031 C 815.882812 488.933594 816.199219 488.597656 816.582031 488.324219 C 816.964844 488.050781 817.382812 487.863281 817.84375 487.753906 C 818.300781 487.648438 818.761719 487.632812 819.222656 487.710938 C 819.6875 487.789062 820.117188 487.949219 820.515625 488.199219 C 821.878906 489.046875 823.21875 489.929688 824.539062 490.84375 C 825.855469 491.757812 827.152344 492.703125 828.421875 493.683594 C 829.695312 494.660156 830.941406 495.667969 832.164062 496.707031 C 833.386719 497.75 834.582031 498.816406 835.75 499.917969 C 836.921875 501.015625 838.0625 502.140625 839.175781 503.296875 C 840.289062 504.453125 841.375 505.632812 842.429688 506.84375 C 843.488281 508.050781 844.511719 509.285156 845.507812 510.542969 C 846.5 511.800781 847.464844 513.085938 848.394531 514.390625 C 849.328125 515.699219 850.226562 517.027344 851.09375 518.378906 C 851.957031 519.726562 852.789062 521.097656 853.589844 522.492188 C 854.386719 523.882812 855.152344 525.292969 855.878906 526.722656 C 856.609375 528.152344 857.300781 529.597656 857.960938 531.0625 C 858.617188 532.527344 859.238281 534.003906 859.824219 535.5 C 860.40625 536.992188 860.953125 538.5 861.464844 540.023438 C 861.976562 541.542969 862.449219 543.078125 862.882812 544.621094 C 863.316406 546.167969 863.714844 547.71875 864.070312 549.285156 C 864.429688 550.847656 864.75 552.421875 865.03125 554 C 865.308594 555.582031 865.550781 557.167969 865.753906 558.757812 C 865.957031 560.351562 866.121094 561.945312 866.242188 563.546875 C 866.367188 565.144531 866.449219 566.746094 866.496094 568.351562 C 866.539062 569.953125 866.546875 571.558594 866.511719 573.164062 C 866.476562 574.765625 866.402344 576.371094 866.289062 577.96875 C 866.175781 579.570312 866.023438 581.167969 865.832031 582.761719 C 865.640625 584.355469 865.40625 585.941406 865.136719 587.523438 C 864.867188 589.105469 864.558594 590.679688 864.210938 592.246094 C 863.863281 593.8125 863.476562 595.367188 863.050781 596.914062 C 862.625 598.460938 862.164062 600 861.664062 601.523438 C 861.164062 603.046875 860.625 604.558594 860.050781 606.058594 C 859.476562 607.554688 858.863281 609.039062 858.214844 610.503906 C 857.566406 611.972656 856.882812 613.425781 856.164062 614.859375 C 855.445312 616.292969 854.691406 617.707031 853.902344 619.105469 C 853.113281 620.503906 852.289062 621.878906 851.429688 623.234375 C 850.574219 624.589844 849.683594 625.925781 848.761719 627.238281 C 847.835938 628.550781 846.882812 629.839844 845.894531 631.105469 C 844.910156 632.371094 843.890625 633.609375 842.84375 634.828125 C 841.796875 636.042969 840.71875 637.230469 839.613281 638.390625 C 838.507812 639.554688 837.371094 640.6875 836.210938 641.796875 C 835.046875 642.902344 833.859375 643.976562 832.644531 645.027344 C 831.429688 646.074219 830.1875 647.089844 828.921875 648.078125 C 827.65625 649.0625 826.367188 650.019531 825.054688 650.941406 C 823.742188 651.863281 822.40625 652.753906 821.050781 653.609375 C 819.695312 654.46875 818.316406 655.289062 816.921875 656.078125 C 815.523438 656.871094 814.109375 657.625 812.671875 658.34375 C 811.238281 659.0625 809.789062 659.746094 808.320312 660.394531 C 806.851562 661.042969 805.371094 661.652344 803.871094 662.226562 C 802.375 662.800781 800.863281 663.339844 799.335938 663.839844 C 797.8125 664.339844 796.277344 664.800781 794.730469 665.226562 C 793.183594 665.652344 791.625 666.039062 790.058594 666.386719 C 788.492188 666.734375 786.917969 667.042969 785.335938 667.3125 C 783.753906 667.582031 782.167969 667.8125 780.574219 668.003906 C 778.980469 668.195312 777.382812 668.351562 775.785156 668.460938 C 774.183594 668.574219 772.582031 668.648438 770.976562 668.683594 C 769.371094 668.71875 767.769531 668.710938 766.164062 668.667969 C 764.558594 668.621094 762.957031 668.539062 761.359375 668.414062 C 759.757812 668.289062 758.164062 668.125 756.570312 667.925781 C 754.980469 667.722656 753.394531 667.480469 751.8125 667.199219 C 750.234375 666.917969 748.664062 666.597656 747.097656 666.242188 C 745.535156 665.882812 743.980469 665.484375 742.4375 665.050781 C 740.890625 664.617188 739.359375 664.144531 737.835938 663.632812 C 736.316406 663.121094 734.808594 662.574219 733.3125 661.988281 C 731.820312 661.40625 730.339844 660.785156 728.878906 660.125 C 727.414062 659.46875 725.96875 658.773438 724.539062 658.046875 C 723.109375 657.316406 721.699219 656.550781 720.304688 655.753906 C 718.914062 654.957031 717.542969 654.121094 716.191406 653.257812 Z M 716.191406 653.257812 " fill-opacity="1" fill-rule="nonzero"/></g></g></g><g clip-path="url(#de674294a0)"><g clip-path="url(#1b319f3432)"><g clip-path="url(#c2dcabdc55)"><path fill="#ffffff" d="M 742.730469 887.160156 C 741.457031 886.34375 740.304688 885.382812 739.273438 884.277344 C 738.246094 883.167969 737.367188 881.949219 736.648438 880.621094 C 735.925781 879.292969 735.382812 877.894531 735.015625 876.425781 C 734.648438 874.960938 734.46875 873.46875 734.480469 871.957031 L 735.566406 728.917969 C 735.570312 728.445312 735.664062 727.996094 735.847656 727.5625 C 736.03125 727.128906 736.289062 726.75 736.625 726.417969 C 736.960938 726.089844 737.34375 725.835938 737.78125 725.660156 C 738.214844 725.484375 738.667969 725.394531 739.136719 725.398438 L 796.21875 725.832031 C 796.6875 725.835938 797.140625 725.929688 797.574219 726.113281 C 798.003906 726.296875 798.386719 726.554688 798.714844 726.890625 C 799.046875 727.222656 799.300781 727.609375 799.476562 728.042969 C 799.652344 728.480469 799.738281 728.933594 799.734375 729.402344 L 798.644531 872.445312 C 798.640625 873.03125 798.609375 873.617188 798.546875 874.199219 C 798.484375 874.78125 798.394531 875.359375 798.273438 875.933594 C 798.15625 876.507812 798.007812 877.074219 797.835938 877.632812 C 797.660156 878.191406 797.457031 878.742188 797.230469 879.28125 C 797.003906 879.820312 796.746094 880.347656 796.46875 880.863281 C 796.1875 881.378906 795.882812 881.878906 795.554688 882.363281 C 795.222656 882.847656 794.871094 883.3125 794.496094 883.765625 C 794.121094 884.214844 793.726562 884.644531 793.308594 885.054688 C 792.890625 885.46875 792.453125 885.855469 792 886.226562 C 791.542969 886.59375 791.070312 886.9375 790.578125 887.261719 C 790.089844 887.582031 789.585938 887.878906 789.066406 888.152344 C 788.546875 888.425781 788.015625 888.671875 787.472656 888.890625 C 786.929688 889.109375 786.378906 889.304688 785.816406 889.46875 C 785.253906 889.636719 784.6875 889.773438 784.109375 889.882812 C 783.535156 889.992188 782.957031 890.074219 782.371094 890.128906 C 781.789062 890.183594 781.203125 890.207031 780.617188 890.203125 L 752.234375 889.988281 C 748.792969 889.964844 745.625 889.023438 742.730469 887.160156 Z M 742.625 732.511719 L 741.566406 872.011719 C 741.5625 872.71875 741.625 873.421875 741.761719 874.121094 C 741.894531 874.816406 742.09375 875.492188 742.359375 876.148438 C 742.628906 876.808594 742.957031 877.433594 743.34375 878.023438 C 743.734375 878.617188 744.179688 879.167969 744.675781 879.671875 C 745.175781 880.175781 745.714844 880.628906 746.304688 881.027344 C 746.890625 881.425781 747.511719 881.765625 748.164062 882.042969 C 748.816406 882.320312 749.488281 882.527344 750.183594 882.671875 C 750.878906 882.816406 751.582031 882.894531 752.289062 882.898438 L 780.671875 883.113281 C 781.382812 883.121094 782.085938 883.054688 782.78125 882.921875 C 783.476562 882.789062 784.15625 882.589844 784.8125 882.324219 C 785.46875 882.058594 786.09375 881.730469 786.6875 881.339844 C 787.28125 880.949219 787.832031 880.507812 788.335938 880.007812 C 788.839844 879.511719 789.292969 878.96875 789.691406 878.382812 C 790.089844 877.792969 790.429688 877.175781 790.707031 876.519531 C 790.980469 875.867188 791.191406 875.195312 791.335938 874.5 C 791.480469 873.804688 791.554688 873.101562 791.558594 872.390625 L 792.621094 732.894531 Z M 742.625 732.511719 " fill-opacity="1" fill-rule="nonzero"/></g></g></g><g clip-path="url(#1c620a7ee9)"><g clip-path="url(#2c54d83504)"><g clip-path="url(#43408a5d25)"><path fill="#ffffff" d="M 749.59375 732.019531 C 749.371094 731.878906 749.167969 731.714844 748.984375 731.527344 C 748.296875 730.828125 747.957031 729.992188 747.964844 729.011719 L 748.199219 698.019531 C 748.203125 697.765625 748.230469 697.515625 748.285156 697.269531 C 748.34375 697.023438 748.421875 696.785156 748.53125 696.558594 C 748.636719 696.328125 748.765625 696.113281 748.917969 695.910156 C 749.070312 695.710938 749.242188 695.527344 749.433594 695.363281 C 749.625 695.195312 749.832031 695.054688 750.054688 694.933594 C 750.273438 694.8125 750.507812 694.71875 750.75 694.644531 C 750.992188 694.574219 751.238281 694.53125 751.492188 694.511719 C 751.742188 694.496094 751.992188 694.503906 752.242188 694.539062 C 762.679688 696.015625 773.125 696.09375 783.582031 694.773438 C 783.835938 694.742188 784.085938 694.738281 784.335938 694.757812 C 784.589844 694.78125 784.835938 694.828125 785.078125 694.902344 C 785.320312 694.980469 785.550781 695.078125 785.769531 695.203125 C 785.988281 695.324219 786.195312 695.472656 786.382812 695.640625 C 786.574219 695.808594 786.742188 695.992188 786.890625 696.195312 C 787.039062 696.402344 787.164062 696.617188 787.269531 696.847656 C 787.371094 697.082031 787.449219 697.320312 787.5 697.566406 C 787.550781 697.8125 787.578125 698.0625 787.574219 698.316406 L 787.339844 729.3125 C 787.335938 729.78125 787.242188 730.230469 787.058594 730.664062 C 786.875 731.097656 786.617188 731.476562 786.28125 731.808594 C 785.945312 732.136719 785.5625 732.390625 785.125 732.566406 C 784.691406 732.746094 784.238281 732.832031 783.769531 732.828125 L 751.480469 732.582031 C 750.796875 732.578125 750.167969 732.390625 749.59375 732.019531 Z M 755.257812 702.058594 L 755.078125 725.523438 L 780.28125 725.714844 L 780.457031 702.25 C 776.296875 702.636719 772.074219 702.816406 767.851562 702.789062 C 763.640625 702.753906 759.441406 702.511719 755.257812 702.058594 Z M 755.257812 702.058594 " fill-opacity="1" fill-rule="nonzero"/></g></g></g><g clip-path="url(#9bda9e9462)"><g clip-path="url(#55209f81a3)"><g clip-path="url(#3d9ad80faf)"><path fill="#ffffff" d="M 825.226562 563.273438 C 824.988281 563.121094 824.773438 562.941406 824.578125 562.734375 C 824.382812 562.53125 824.214844 562.304688 824.070312 562.058594 C 823.929688 561.8125 823.820312 561.554688 823.742188 561.28125 C 823.660156 561.007812 823.617188 560.730469 823.605469 560.449219 C 823.589844 560.164062 823.613281 559.882812 823.667969 559.605469 C 823.722656 559.328125 823.808594 559.0625 823.929688 558.804688 C 824.046875 558.546875 824.195312 558.308594 824.371094 558.085938 C 824.550781 557.863281 824.75 557.664062 824.972656 557.492188 L 836.765625 548.355469 L 822.957031 542.710938 C 822.523438 542.53125 822.140625 542.277344 821.804688 541.945312 C 821.472656 541.617188 821.214844 541.234375 821.03125 540.800781 C 820.851562 540.367188 820.757812 539.917969 820.757812 539.445312 C 820.753906 538.976562 820.84375 538.523438 821.019531 538.089844 C 821.199219 537.65625 821.453125 537.269531 821.785156 536.9375 C 822.113281 536.601562 822.496094 536.34375 822.929688 536.164062 C 823.363281 535.980469 823.8125 535.890625 824.285156 535.886719 C 824.753906 535.886719 825.207031 535.972656 825.640625 536.152344 L 845.128906 544.121094 C 845.714844 544.359375 846.203125 544.730469 846.589844 545.230469 C 846.976562 545.730469 847.214844 546.292969 847.296875 546.921875 C 847.382812 547.546875 847.308594 548.15625 847.066406 548.742188 C 846.828125 549.328125 846.457031 549.8125 845.957031 550.199219 L 829.3125 563.09375 C 829.023438 563.316406 828.707031 563.492188 828.363281 563.617188 C 828.019531 563.742188 827.664062 563.816406 827.300781 563.832031 C 826.933594 563.847656 826.574219 563.808594 826.21875 563.710938 C 825.867188 563.617188 825.535156 563.472656 825.226562 563.273438 Z M 825.226562 563.273438 " fill-opacity="1" fill-rule="nonzero"/></g></g></g><g clip-path="url(#44aaca7c25)"><g clip-path="url(#56baa18bad)"><g clip-path="url(#b0f7a16832)"><path fill="#ffffff" d="M 730.902344 541.796875 C 730.597656 541.601562 730.332031 541.363281 730.097656 541.085938 C 729.867188 540.808594 729.683594 540.503906 729.542969 540.167969 C 729.40625 539.832031 729.320312 539.488281 729.289062 539.125 C 729.257812 538.765625 729.28125 538.410156 729.355469 538.054688 C 729.433594 537.703125 729.5625 537.367188 729.742188 537.054688 C 729.921875 536.738281 730.144531 536.460938 730.410156 536.214844 C 730.675781 535.96875 730.972656 535.769531 731.296875 535.613281 C 731.625 535.457031 731.96875 535.355469 732.328125 535.304688 L 779.898438 528.648438 C 780.300781 528.589844 780.699219 528.601562 781.097656 528.683594 C 781.496094 528.765625 781.867188 528.910156 782.214844 529.117188 C 782.5625 529.328125 782.863281 529.589844 783.121094 529.902344 C 783.378906 530.214844 783.578125 530.5625 783.714844 530.941406 L 791.175781 551.359375 L 843.285156 543.894531 C 843.75 543.828125 844.210938 543.851562 844.664062 543.96875 C 845.121094 544.085938 845.535156 544.28125 845.910156 544.566406 C 846.289062 544.847656 846.597656 545.1875 846.835938 545.59375 C 847.074219 545.996094 847.230469 546.433594 847.296875 546.898438 C 847.363281 547.363281 847.335938 547.820312 847.222656 548.277344 C 847.105469 548.734375 846.90625 549.148438 846.625 549.523438 C 846.34375 549.898438 846 550.207031 845.59375 550.445312 C 845.191406 550.6875 844.757812 550.839844 844.289062 550.90625 L 789.335938 558.78125 C 788.933594 558.839844 788.535156 558.828125 788.136719 558.75 C 787.738281 558.667969 787.363281 558.523438 787.015625 558.316406 C 786.664062 558.105469 786.359375 557.84375 786.101562 557.53125 C 785.84375 557.21875 785.644531 556.871094 785.507812 556.488281 L 778.042969 536.0625 L 733.308594 542.324219 C 732.441406 542.445312 731.640625 542.269531 730.902344 541.796875 Z M 730.902344 541.796875 " fill-opacity="1" fill-rule="nonzero"/></g></g></g><g clip-path="url(#ba7ba4ef31)"><g clip-path="url(#3405ae1e59)"><g clip-path="url(#d711ca767f)"><path fill="#20bffc" d="M 717.425781 604.566406 L 696.277344 590.980469 C 695.878906 590.726562 695.546875 590.40625 695.28125 590.023438 C 695.011719 589.636719 694.828125 589.214844 694.726562 588.753906 C 694.628906 588.296875 694.621094 587.835938 694.703125 587.371094 C 694.785156 586.910156 694.957031 586.480469 695.210938 586.085938 L 715.035156 555.21875 C 715.289062 554.824219 715.609375 554.492188 715.996094 554.222656 C 716.378906 553.957031 716.804688 553.773438 717.261719 553.671875 C 717.722656 553.574219 718.183594 553.5625 718.644531 553.648438 C 719.105469 553.730469 719.535156 553.898438 719.929688 554.152344 L 741.082031 567.738281 C 741.476562 567.992188 741.808594 568.3125 742.078125 568.699219 C 742.347656 569.085938 742.53125 569.507812 742.628906 569.96875 C 742.730469 570.425781 742.738281 570.886719 742.65625 571.347656 C 742.570312 571.8125 742.402344 572.242188 742.148438 572.636719 L 722.324219 603.5 C 722.070312 603.898438 721.75 604.230469 721.363281 604.496094 C 720.976562 604.765625 720.554688 604.949219 720.097656 605.050781 C 719.636719 605.148438 719.175781 605.15625 718.714844 605.074219 C 718.25 604.992188 717.824219 604.820312 717.425781 604.566406 Z M 703.085938 586.933594 L 718.277344 596.691406 L 734.273438 571.785156 L 719.082031 562.03125 Z M 703.085938 586.933594 " fill-opacity="1" fill-rule="nonzero"/></g></g></g><g clip-path="url(#4d17784d6e)"><g clip-path="url(#674eec4265)"><g clip-path="url(#3b2d6311e5)"><path fill="#20bffc" d="M 738.582031 618.15625 L 717.425781 604.566406 C 717.03125 604.3125 716.699219 603.996094 716.433594 603.609375 C 716.164062 603.222656 715.980469 602.800781 715.878906 602.339844 C 715.78125 601.882812 715.773438 601.421875 715.855469 600.957031 C 715.9375 600.496094 716.105469 600.066406 716.359375 599.671875 L 747.425781 551.3125 C 747.679688 550.914062 748 550.582031 748.382812 550.316406 C 748.769531 550.046875 749.191406 549.863281 749.652344 549.761719 C 750.109375 549.664062 750.570312 549.65625 751.035156 549.738281 C 751.496094 549.820312 751.925781 549.992188 752.320312 550.246094 L 773.472656 563.832031 C 773.871094 564.085938 774.199219 564.40625 774.46875 564.792969 C 774.738281 565.175781 774.921875 565.597656 775.019531 566.058594 C 775.121094 566.519531 775.128906 566.976562 775.046875 567.441406 C 774.964844 567.902344 774.792969 568.332031 774.539062 568.726562 L 743.476562 617.089844 C 743.222656 617.484375 742.902344 617.816406 742.515625 618.085938 C 742.132812 618.351562 741.707031 618.535156 741.25 618.636719 C 740.789062 618.738281 740.328125 618.746094 739.867188 618.660156 C 739.40625 618.578125 738.976562 618.410156 738.582031 618.15625 Z M 724.238281 600.519531 L 739.429688 610.277344 L 766.664062 567.878906 L 751.472656 558.121094 Z M 724.238281 600.519531 " fill-opacity="1" fill-rule="nonzero"/></g></g></g><g clip-path="url(#b5e9195b7a)"><g clip-path="url(#e011a3646a)"><g clip-path="url(#cb6b2c80f0)"><path fill="#20bffc" d="M 780.886719 645.328125 L 759.734375 631.742188 C 759.335938 631.488281 759.003906 631.167969 758.738281 630.78125 C 758.46875 630.394531 758.285156 629.972656 758.183594 629.515625 C 758.085938 629.054688 758.078125 628.59375 758.160156 628.132812 C 758.242188 627.671875 758.414062 627.242188 758.667969 626.847656 L 789.730469 578.484375 C 789.984375 578.089844 790.304688 577.757812 790.691406 577.488281 C 791.074219 577.222656 791.496094 577.035156 791.957031 576.9375 C 792.417969 576.835938 792.878906 576.828125 793.339844 576.910156 C 793.800781 576.996094 794.230469 577.164062 794.625 577.417969 L 815.777344 591.003906 C 816.175781 591.257812 816.507812 591.578125 816.773438 591.964844 C 817.042969 592.351562 817.226562 592.773438 817.328125 593.230469 C 817.425781 593.691406 817.433594 594.152344 817.351562 594.613281 C 817.269531 595.078125 817.097656 595.503906 816.84375 595.902344 L 785.78125 644.261719 C 785.527344 644.65625 785.207031 644.988281 784.820312 645.257812 C 784.4375 645.527344 784.015625 645.710938 783.554688 645.808594 C 783.09375 645.910156 782.636719 645.917969 782.171875 645.835938 C 781.710938 645.75 781.28125 645.582031 780.886719 645.328125 Z M 766.542969 627.695312 L 781.734375 637.453125 L 808.96875 595.050781 L 793.777344 585.292969 Z M 766.542969 627.695312 " fill-opacity="1" fill-rule="nonzero"/></g></g></g><g clip-path="url(#8c2042b735)"><g clip-path="url(#d78b11e45e)"><g clip-path="url(#7c0c060f97)"><path fill="#20bffc" d="M 759.734375 631.742188 L 738.582031 618.15625 C 738.183594 617.902344 737.855469 617.582031 737.585938 617.195312 C 737.316406 616.808594 737.132812 616.386719 737.035156 615.929688 C 736.933594 615.46875 736.925781 615.007812 737.007812 614.546875 C 737.089844 614.082031 737.261719 613.65625 737.515625 613.257812 L 758.378906 580.777344 C 758.632812 580.382812 758.953125 580.050781 759.335938 579.78125 C 759.722656 579.515625 760.144531 579.332031 760.605469 579.230469 C 761.0625 579.128906 761.523438 579.121094 761.988281 579.207031 C 762.449219 579.289062 762.878906 579.457031 763.273438 579.710938 L 784.425781 593.296875 C 784.820312 593.550781 785.152344 593.871094 785.421875 594.257812 C 785.6875 594.644531 785.875 595.066406 785.972656 595.523438 C 786.074219 595.984375 786.082031 596.445312 786 596.90625 C 785.914062 597.371094 785.746094 597.796875 785.492188 598.195312 L 764.628906 630.675781 C 764.375 631.070312 764.054688 631.402344 763.667969 631.671875 C 763.28125 631.9375 762.859375 632.121094 762.402344 632.222656 C 761.941406 632.324219 761.480469 632.332031 761.019531 632.246094 C 760.558594 632.164062 760.128906 631.996094 759.734375 631.742188 Z M 745.390625 614.109375 L 760.582031 623.863281 L 777.617188 597.34375 L 762.425781 587.589844 Z M 745.390625 614.109375 " fill-opacity="1" fill-rule="nonzero"/></g></g></g><g fill="#ffffff" fill-opacity="1"><g transform="translate(40.816436, 866.824657)"><g><path d="M 7.921875 -108.828125 L 46.828125 -108.828125 C 57.296875 -108.828125 65.828125 -106.035156 72.421875 -100.453125 C 79.015625 -94.867188 82.3125 -86.890625 82.3125 -76.515625 C 82.3125 -68.515625 80.3125 -61.804688 76.3125 -56.390625 C 72.3125 -50.984375 66.882812 -47.179688 60.03125 -44.984375 L 97.484375 0 L 65.953125 0 L 32.71875 -43 L 32.71875 0 L 7.921875 0 Z M 32.71875 -60.546875 L 35.625 -60.546875 C 37.90625 -60.546875 39.835938 -60.585938 41.421875 -60.671875 C 43.003906 -60.765625 44.804688 -61.078125 46.828125 -61.609375 C 48.847656 -62.140625 50.472656 -62.882812 51.703125 -63.84375 C 52.941406 -64.8125 54 -66.21875 54.875 -68.0625 C 55.757812 -69.914062 56.203125 -72.160156 56.203125 -74.796875 C 56.203125 -77.429688 55.757812 -79.671875 54.875 -81.515625 C 54 -83.367188 52.941406 -84.78125 51.703125 -85.75 C 50.472656 -86.71875 48.847656 -87.460938 46.828125 -87.984375 C 44.804688 -88.515625 43.003906 -88.820312 41.421875 -88.90625 C 39.835938 -89 37.90625 -89.046875 35.625 -89.046875 L 32.71875 -89.046875 Z M 32.71875 -60.546875 "/></g></g></g><g fill="#ffffff" fill-opacity="1"><g transform="translate(132.631221, 866.824657)"><g><path d="M 12.53125 -8.375 C 6.195312 -15.28125 3.03125 -23.742188 3.03125 -33.765625 C 3.03125 -43.796875 6.195312 -52.285156 12.53125 -59.234375 C 18.863281 -66.179688 26.910156 -69.65625 36.671875 -69.65625 C 45.640625 -69.65625 53.03125 -66.84375 58.84375 -61.21875 L 58.84375 -67.671875 L 82.1875 -67.671875 L 82.1875 0 L 59.09375 0 L 59.09375 -7.65625 L 58.84375 -7.65625 C 53.03125 -1.226562 45.640625 1.984375 36.671875 1.984375 C 26.910156 1.984375 18.863281 -1.46875 12.53125 -8.375 Z M 32.375 -45.25 C 29.34375 -42.257812 27.828125 -38.429688 27.828125 -33.765625 C 27.828125 -29.109375 29.28125 -25.304688 32.1875 -22.359375 C 35.09375 -19.410156 38.921875 -17.9375 43.671875 -17.9375 C 48.242188 -17.9375 52 -19.429688 54.9375 -22.421875 C 57.882812 -25.410156 59.359375 -29.191406 59.359375 -33.765625 C 59.359375 -38.429688 57.84375 -42.257812 54.8125 -45.25 C 51.78125 -48.238281 48.066406 -49.734375 43.671875 -49.734375 C 39.179688 -49.734375 35.414062 -48.238281 32.375 -45.25 Z M 32.375 -45.25 "/></g></g></g><g fill="#ffffff" fill-opacity="1"><g transform="translate(222.731212, 866.824657)"><g><path d="M 7.921875 0 L 7.921875 -67.671875 L 31.265625 -67.671875 L 31.265625 -60.546875 L 31.53125 -60.546875 C 37.59375 -66.617188 44.054688 -69.65625 50.921875 -69.65625 C 54.265625 -69.65625 57.582031 -69.210938 60.875 -68.328125 C 64.175781 -67.453125 67.34375 -66.085938 70.375 -64.234375 C 73.414062 -62.390625 75.878906 -59.773438 77.765625 -56.390625 C 79.660156 -53.003906 80.609375 -49.070312 80.609375 -44.59375 L 80.609375 0 L 57.25 0 L 57.25 -38.25 C 57.25 -41.769531 56.128906 -44.847656 53.890625 -47.484375 C 51.648438 -50.128906 48.726562 -51.453125 45.125 -51.453125 C 41.601562 -51.453125 38.410156 -50.085938 35.546875 -47.359375 C 32.691406 -44.628906 31.265625 -41.59375 31.265625 -38.25 L 31.265625 0 Z M 7.921875 0 "/></g></g></g><g fill="#ffffff" fill-opacity="1"><g transform="translate(309.929015, 866.824657)"><g><path d="M 85.21875 -67.671875 L 53.03125 -35.359375 L 88.390625 0 L 58.3125 0 L 31.265625 -27.046875 L 31.265625 0 L 7.921875 0 L 7.921875 -113.453125 L 31.265625 -113.453125 L 31.265625 -44.0625 L 54.875 -67.671875 Z M 85.21875 -67.671875 "/></g></g></g><g fill="#ffffff" fill-opacity="1"><g transform="translate(395.148056, 866.824657)"><g><path d="M 7.921875 -108.828125 L 47.625 -108.828125 C 58.707031 -108.828125 67.675781 -105.96875 74.53125 -100.25 C 81.394531 -94.539062 84.828125 -86.234375 84.828125 -75.328125 C 84.828125 -64.421875 81.351562 -55.867188 74.40625 -49.671875 C 67.457031 -43.472656 58.53125 -40.375 47.625 -40.375 L 32.71875 -40.375 L 32.71875 0 L 7.921875 0 Z M 32.71875 -60.15625 L 39.703125 -60.15625 C 45.242188 -60.15625 49.796875 -61.273438 53.359375 -63.515625 C 56.921875 -65.765625 58.703125 -69.4375 58.703125 -74.53125 C 58.703125 -79.71875 56.921875 -83.429688 53.359375 -85.671875 C 49.796875 -87.921875 45.242188 -89.046875 39.703125 -89.046875 L 32.71875 -89.046875 Z M 32.71875 -60.15625 "/></g></g></g><g fill="#ffffff" fill-opacity="1"><g transform="translate(479.707299, 866.824657)"><g><path d="M 7.921875 0 L 7.921875 -67.671875 L 31.265625 -67.671875 L 31.265625 -57.90625 L 31.53125 -57.90625 C 31.707031 -58.257812 31.992188 -58.703125 32.390625 -59.234375 C 32.785156 -59.765625 33.640625 -60.6875 34.953125 -62 C 36.273438 -63.320312 37.679688 -64.507812 39.171875 -65.5625 C 40.671875 -66.613281 42.609375 -67.554688 44.984375 -68.390625 C 47.359375 -69.234375 49.773438 -69.65625 52.234375 -69.65625 C 54.785156 -69.65625 57.289062 -69.300781 59.75 -68.59375 C 62.21875 -67.894531 64.023438 -67.191406 65.171875 -66.484375 L 67.015625 -65.4375 L 57.25 -45.640625 C 54.351562 -48.109375 50.3125 -49.34375 45.125 -49.34375 C 42.300781 -49.34375 39.878906 -48.722656 37.859375 -47.484375 C 35.835938 -46.253906 34.410156 -44.757812 33.578125 -43 C 32.742188 -41.25 32.148438 -39.753906 31.796875 -38.515625 C 31.441406 -37.285156 31.265625 -36.320312 31.265625 -35.625 L 31.265625 0 Z M 7.921875 0 "/></g></g></g><g fill="#ffffff" fill-opacity="1"><g transform="translate(544.610903, 866.824657)"><g><path d="M 76.375 -30.609375 L 27.3125 -30.609375 C 27.3125 -25.859375 28.847656 -22.335938 31.921875 -20.046875 C 35.003906 -17.765625 38.347656 -16.625 41.953125 -16.625 C 45.734375 -16.625 48.722656 -17.128906 50.921875 -18.140625 C 53.117188 -19.148438 55.625 -21.148438 58.4375 -24.140625 L 75.328125 -15.703125 C 68.296875 -3.910156 56.597656 1.984375 40.234375 1.984375 C 30.035156 1.984375 21.285156 -1.507812 13.984375 -8.5 C 6.679688 -15.5 3.03125 -23.921875 3.03125 -33.765625 C 3.03125 -43.617188 6.679688 -52.0625 13.984375 -59.09375 C 21.285156 -66.132812 30.035156 -69.65625 40.234375 -69.65625 C 50.960938 -69.65625 59.691406 -66.550781 66.421875 -60.34375 C 73.148438 -54.144531 76.515625 -45.285156 76.515625 -33.765625 C 76.515625 -32.179688 76.46875 -31.128906 76.375 -30.609375 Z M 27.96875 -43.53125 L 53.6875 -43.53125 C 53.164062 -47.050781 51.78125 -49.753906 49.53125 -51.640625 C 47.289062 -53.535156 44.410156 -54.484375 40.890625 -54.484375 C 37.023438 -54.484375 33.945312 -53.472656 31.65625 -51.453125 C 29.375 -49.429688 28.144531 -46.789062 27.96875 -43.53125 Z M 27.96875 -43.53125 "/></g></g></g><g fill="#ffffff" fill-opacity="1"><g transform="translate(624.157451, 866.824657)"><g><path d="M 12.53125 -8.375 C 6.195312 -15.28125 3.03125 -23.742188 3.03125 -33.765625 C 3.03125 -43.796875 6.195312 -52.285156 12.53125 -59.234375 C 18.863281 -66.179688 26.910156 -69.65625 36.671875 -69.65625 C 45.640625 -69.65625 53.03125 -66.84375 58.84375 -61.21875 L 58.84375 -113.453125 L 82.1875 -113.453125 L 82.1875 0 L 59.09375 0 L 59.09375 -7.65625 L 58.84375 -7.65625 C 53.03125 -1.226562 45.640625 1.984375 36.671875 1.984375 C 26.910156 1.984375 18.863281 -1.46875 12.53125 -8.375 Z M 32.375 -45.25 C 29.34375 -42.257812 27.828125 -38.429688 27.828125 -33.765625 C 27.828125 -29.109375 29.28125 -25.304688 32.1875 -22.359375 C 35.09375 -19.410156 38.921875 -17.9375 43.671875 -17.9375 C 48.242188 -17.9375 52 -19.429688 54.9375 -22.421875 C 57.882812 -25.410156 59.359375 -29.191406 59.359375 -33.765625 C 59.359375 -38.429688 57.84375 -42.257812 54.8125 -45.25 C 51.78125 -48.238281 48.066406 -49.734375 43.671875 -49.734375 C 39.179688 -49.734375 35.414062 -48.238281 32.375 -45.25 Z M 32.375 -45.25 "/></g></g></g><g fill="#ffffff" fill-opacity="1"><g transform="translate(714.257784, 866.824657)"><g/></g></g><g fill="#ffffff" fill-opacity="1"><g transform="translate(750.2714, 866.824657)"><g/></g></g><g fill="#ffffff" fill-opacity="1"><g transform="translate(786.285015, 866.824657)"><g/></g></g><g fill="#ffffff" fill-opacity="1"><g transform="translate(822.30465, 866.824657)"><g><path d="M 43.9375 -50.53125 C 39.53125 -50.53125 35.742188 -48.898438 32.578125 -45.640625 C 29.410156 -42.390625 27.828125 -38.476562 27.828125 -33.90625 C 27.828125 -29.238281 29.410156 -25.28125 32.578125 -22.03125 C 35.742188 -18.78125 39.53125 -17.15625 43.9375 -17.15625 C 46.039062 -17.15625 48.035156 -17.414062 49.921875 -17.9375 C 51.816406 -18.46875 53.207031 -19 54.09375 -19.53125 L 55.28125 -20.3125 L 63.1875 -4.09375 C 62.570312 -3.65625 61.710938 -3.101562 60.609375 -2.4375 C 59.515625 -1.78125 57.007812 -0.878906 53.09375 0.265625 C 49.1875 1.410156 44.988281 1.984375 40.5 1.984375 C 30.5625 1.984375 21.832031 -1.507812 14.3125 -8.5 C 6.789062 -15.5 3.03125 -23.878906 3.03125 -33.640625 C 3.03125 -43.492188 6.789062 -51.957031 14.3125 -59.03125 C 21.832031 -66.113281 30.5625 -69.65625 40.5 -69.65625 C 44.988281 -69.65625 49.125 -69.125 52.90625 -68.0625 C 56.6875 -67.007812 59.367188 -65.957031 60.953125 -64.90625 L 63.1875 -63.328125 L 55.28125 -47.359375 C 52.375 -49.472656 48.59375 -50.53125 43.9375 -50.53125 Z M 43.9375 -50.53125 "/></g></g></g><g fill="#ffffff" fill-opacity="1"><g transform="translate(886.416759, 866.824657)"><g><path d="M 11.875 -67.671875 L 11.875 -92.875 L 35.21875 -92.875 L 35.21875 -67.671875 L 49.46875 -67.671875 L 49.46875 -49.859375 L 35.21875 -49.859375 L 35.21875 -28.359375 C 35.21875 -22.117188 36.976562 -19 40.5 -19 C 41.375 -19 42.296875 -19.171875 43.265625 -19.515625 C 44.234375 -19.867188 44.984375 -20.222656 45.515625 -20.578125 L 46.296875 -21.109375 L 52.109375 -2.25 C 47.097656 0.570312 41.378906 1.984375 34.953125 1.984375 C 30.554688 1.984375 26.773438 1.210938 23.609375 -0.328125 C 20.441406 -1.867188 18.046875 -3.9375 16.421875 -6.53125 C 14.796875 -9.125 13.628906 -11.847656 12.921875 -14.703125 C 12.222656 -17.566406 11.875 -20.625 11.875 -23.875 L 11.875 -49.859375 L 2.109375 -49.859375 L 2.109375 -67.671875 Z M 11.875 -67.671875 "/></g></g></g><g fill="#ffffff" fill-opacity="1"><g transform="translate(938.524371, 866.824657)"><g><path d="M 10.15625 -105.40625 C 12.882812 -108.132812 16.140625 -109.5 19.921875 -109.5 C 23.703125 -109.5 26.953125 -108.132812 29.671875 -105.40625 C 32.398438 -102.675781 33.765625 -99.421875 33.765625 -95.640625 C 33.765625 -91.859375 32.398438 -88.601562 29.671875 -85.875 C 26.953125 -83.15625 23.703125 -81.796875 19.921875 -81.796875 C 16.140625 -81.796875 12.882812 -83.15625 10.15625 -85.875 C 7.425781 -88.601562 6.0625 -91.859375 6.0625 -95.640625 C 6.0625 -99.421875 7.425781 -102.675781 10.15625 -105.40625 Z M 7.921875 -67.671875 L 7.921875 0 L 31.265625 0 L 31.265625 -67.671875 Z M 7.921875 -67.671875 "/></g></g></g><g fill="#ffffff" fill-opacity="1"><g transform="translate(978.363608, 866.824657)"><g><path d="M 14.3125 -8.046875 C 6.789062 -14.734375 3.03125 -23.304688 3.03125 -33.765625 C 3.03125 -44.234375 6.941406 -52.832031 14.765625 -59.5625 C 22.597656 -66.289062 32.273438 -69.65625 43.796875 -69.65625 C 55.140625 -69.65625 64.703125 -66.269531 72.484375 -59.5 C 80.273438 -52.726562 84.171875 -44.148438 84.171875 -33.765625 C 84.171875 -23.390625 80.363281 -14.835938 72.75 -8.109375 C 65.144531 -1.378906 55.492188 1.984375 43.796875 1.984375 C 31.660156 1.984375 21.832031 -1.359375 14.3125 -8.046875 Z M 32.375 -45.25 C 29.34375 -42.257812 27.828125 -38.429688 27.828125 -33.765625 C 27.828125 -29.109375 29.28125 -25.304688 32.1875 -22.359375 C 35.09375 -19.410156 38.921875 -17.9375 43.671875 -17.9375 C 48.242188 -17.9375 52 -19.429688 54.9375 -22.421875 C 57.882812 -25.410156 59.359375 -29.191406 59.359375 -33.765625 C 59.359375 -38.429688 57.84375 -42.257812 54.8125 -45.25 C 51.78125 -48.238281 48.066406 -49.734375 43.671875 -49.734375 C 39.179688 -49.734375 35.414062 -48.238281 32.375 -45.25 Z M 32.375 -45.25 "/></g></g></g><g fill="#ffffff" fill-opacity="1"><g transform="translate(1065.297557, 866.824657)"><g><path d="M 7.921875 0 L 7.921875 -67.671875 L 31.265625 -67.671875 L 31.265625 -60.546875 L 31.53125 -60.546875 C 37.59375 -66.617188 44.054688 -69.65625 50.921875 -69.65625 C 54.265625 -69.65625 57.582031 -69.210938 60.875 -68.328125 C 64.175781 -67.453125 67.34375 -66.085938 70.375 -64.234375 C 73.414062 -62.390625 75.878906 -59.773438 77.765625 -56.390625 C 79.660156 -53.003906 80.609375 -49.070312 80.609375 -44.59375 L 80.609375 0 L 57.25 0 L 57.25 -38.25 C 57.25 -41.769531 56.128906 -44.847656 53.890625 -47.484375 C 51.648438 -50.128906 48.726562 -51.453125 45.125 -51.453125 C 41.601562 -51.453125 38.410156 -50.085938 35.546875 -47.359375 C 32.691406 -44.628906 31.265625 -41.59375 31.265625 -38.25 L 31.265625 0 Z M 7.921875 0 "/></g></g></g><g fill="#ffffff" fill-opacity="1"><g transform="translate(1151.466608, 866.824657)"><g><path d="M 22.953125 -28.234375 C 27.171875 -28.234375 30.753906 -26.757812 33.703125 -23.8125 C 36.648438 -20.863281 38.125 -17.28125 38.125 -13.0625 C 38.125 -8.925781 36.648438 -5.382812 33.703125 -2.4375 C 30.753906 0.507812 27.171875 1.984375 22.953125 1.984375 C 18.816406 1.984375 15.273438 0.507812 12.328125 -2.4375 C 9.390625 -5.382812 7.921875 -8.925781 7.921875 -13.0625 C 7.921875 -17.28125 9.390625 -20.863281 12.328125 -23.8125 C 15.273438 -26.757812 18.816406 -28.234375 22.953125 -28.234375 Z M 22.953125 -28.234375 "/></g></g></g><g fill="#ffffff" fill-opacity="1"><g transform="translate(1197.50599, 866.824657)"><g><path d="M 43.9375 -50.53125 C 39.53125 -50.53125 35.742188 -48.898438 32.578125 -45.640625 C 29.410156 -42.390625 27.828125 -38.476562 27.828125 -33.90625 C 27.828125 -29.238281 29.410156 -25.28125 32.578125 -22.03125 C 35.742188 -18.78125 39.53125 -17.15625 43.9375 -17.15625 C 46.039062 -17.15625 48.035156 -17.414062 49.921875 -17.9375 C 51.816406 -18.46875 53.207031 -19 54.09375 -19.53125 L 55.28125 -20.3125 L 63.1875 -4.09375 C 62.570312 -3.65625 61.710938 -3.101562 60.609375 -2.4375 C 59.515625 -1.78125 57.007812 -0.878906 53.09375 0.265625 C 49.1875 1.410156 44.988281 1.984375 40.5 1.984375 C 30.5625 1.984375 21.832031 -1.507812 14.3125 -8.5 C 6.789062 -15.5 3.03125 -23.878906 3.03125 -33.640625 C 3.03125 -43.492188 6.789062 -51.957031 14.3125 -59.03125 C 21.832031 -66.113281 30.5625 -69.65625 40.5 -69.65625 C 44.988281 -69.65625 49.125 -69.125 52.90625 -68.0625 C 56.6875 -67.007812 59.367188 -65.957031 60.953125 -64.90625 L 63.1875 -63.328125 L 55.28125 -47.359375 C 52.375 -49.472656 48.59375 -50.53125 43.9375 -50.53125 Z M 43.9375 -50.53125 "/></g></g></g><g fill="#ffffff" fill-opacity="1"><g transform="translate(1262.277725, 866.824657)"><g><path d="M 14.3125 -8.046875 C 6.789062 -14.734375 3.03125 -23.304688 3.03125 -33.765625 C 3.03125 -44.234375 6.941406 -52.832031 14.765625 -59.5625 C 22.597656 -66.289062 32.273438 -69.65625 43.796875 -69.65625 C 55.140625 -69.65625 64.703125 -66.269531 72.484375 -59.5 C 80.273438 -52.726562 84.171875 -44.148438 84.171875 -33.765625 C 84.171875 -23.390625 80.363281 -14.835938 72.75 -8.109375 C 65.144531 -1.378906 55.492188 1.984375 43.796875 1.984375 C 31.660156 1.984375 21.832031 -1.359375 14.3125 -8.046875 Z M 32.375 -45.25 C 29.34375 -42.257812 27.828125 -38.429688 27.828125 -33.765625 C 27.828125 -29.109375 29.28125 -25.304688 32.1875 -22.359375 C 35.09375 -19.410156 38.921875 -17.9375 43.671875 -17.9375 C 48.242188 -17.9375 52 -19.429688 54.9375 -22.421875 C 57.882812 -25.410156 59.359375 -29.191406 59.359375 -33.765625 C 59.359375 -38.429688 57.84375 -42.257812 54.8125 -45.25 C 51.78125 -48.238281 48.066406 -49.734375 43.671875 -49.734375 C 39.179688 -49.734375 35.414062 -48.238281 32.375 -45.25 Z M 32.375 -45.25 "/></g></g></g><g fill="#ffffff" fill-opacity="1"><g transform="translate(1349.211662, 866.824657)"><g><path d="M 7.921875 0 L 7.921875 -67.671875 L 31.265625 -67.671875 L 31.265625 -60.546875 L 31.53125 -60.546875 C 37.59375 -66.617188 44.054688 -69.65625 50.921875 -69.65625 C 55.847656 -69.65625 60.460938 -68.644531 64.765625 -66.625 C 69.078125 -64.601562 72.332031 -61.476562 74.53125 -57.25 C 81.394531 -65.519531 88.875 -69.65625 96.96875 -69.65625 C 104.175781 -69.65625 110.375 -67.628906 115.5625 -63.578125 C 120.75 -59.535156 123.34375 -53.207031 123.34375 -44.59375 L 123.34375 0 L 100 0 L 100 -38.25 C 100 -41.863281 99.007812 -44.878906 97.03125 -47.296875 C 95.050781 -49.710938 92.082031 -50.921875 88.125 -50.921875 C 84.695312 -50.921875 82.078125 -49.882812 80.265625 -47.8125 C 78.460938 -45.75 77.476562 -43.269531 77.3125 -40.375 L 77.3125 0 L 53.953125 0 L 53.953125 -38.25 C 53.953125 -41.863281 52.960938 -44.878906 50.984375 -47.296875 C 49.003906 -49.710938 46.035156 -50.921875 42.078125 -50.921875 C 38.472656 -50.921875 35.769531 -49.796875 33.96875 -47.546875 C 32.164062 -45.304688 31.265625 -42.648438 31.265625 -39.578125 L 31.265625 0 Z M 7.921875 0 "/></g></g></g></svg>